#!OML:ASF H:\Dans Jumps\Project 1\Capture day 1\Session 1\subject.ASF
:FULLY-SPECIFIED
:DEGREES
422
root 0.0722033 17.7347 10.4478 8.77296 -1.09499 -1.70857
lowerback -3.63252 0.732456 0.360166
upperback 0.62524 0.920615 1.5153
thorax 2.6597 0.4529 1.40911
lowerneck -12.1553 -0.504601 -1.4962
upperneck 26.1739 -0.565396 0.758352
head 10.3687 -0.315383 0.455558
rclavicle -1.12313e-014 -9.74045e-015
rhumerus -23.0175 -11.5882 -83.175
rradius 24.8195
rwrist 39.6291
rhand -18.1071 -25.2245
rfingers 7.12502
rthumb 8.16701 -55.0467
lclavicle -1.12313e-014 -9.74045e-015
lhumerus -29.5688 -1.20612 90.5638
lradius 16.6506
lwrist 7.11603
lhand -25.2899 -8.00645
lfingers 7.12502
lthumb 1.23161 21.9697
rfemur -12.5722 -2.68478 20.2798
rtibia 18.7362
rfoot -13.7656 2.7887
rtoes 17.639
lfemur -11.7151 8.52637 -17.5666
ltibia 16.8016
lfoot -10.7092 5.48718
ltoes -10.2642
423
root 0.0715953 17.732 10.4649 8.68543 -1.14753 -1.71755
lowerback -3.74667 0.718219 0.352979
upperback 0.579472 0.900811 1.52864
thorax 2.67688 0.442859 1.42702
lowerneck -12.1967 -0.472949 -1.5123
upperneck 26.0537 -0.518917 0.7688
head 10.3323 -0.294265 0.467375
rclavicle -8.24956e-015 1.72943e-014
rhumerus -23.0512 -11.6228 -83.1693
rradius 24.7991
rwrist 39.6124
rhand -18.082 -25.2306
rfingers 7.12502
rthumb 8.19119 -55.0518
lclavicle -8.24956e-015 1.72943e-014
lhumerus -29.507 -1.14851 90.5471
lradius 16.6172
lwrist 6.94393
lhand -25.1887 -7.82102
lfingers 7.12502
lthumb 1.32935 22.1546
rfemur -12.4106 -2.69263 20.2791
rtibia 18.7256
rfoot -13.8273 2.85415
rtoes 17.6233
lfemur -11.5846 8.56922 -17.5476
ltibia 16.8758
lfoot -10.7292 5.52719
ltoes -10.1874
424
root 0.0709457 17.7293 10.4812 8.60178 -1.202 -1.72418
lowerback -3.8529 0.706376 0.342872
upperback 0.53083 0.884505 1.54159
thorax 2.68654 0.434555 1.44618
lowerneck -12.2565 -0.443147 -1.53837
upperneck 25.9441 -0.473689 0.784029
head 10.3034 -0.274075 0.48243
rclavicle 6.26172e-015 7.95139e-015
rhumerus -23.0983 -11.6741 -83.157
rradius 24.7744
rwrist 39.6011
rhand -18.0556 -25.2346
rfingers 7.12502
rthumb 8.21669 -55.0549
lclavicle 6.26172e-015 7.95139e-015
lhumerus -29.4505 -1.07139 90.5218
lradius 16.588
lwrist 6.77334
lhand -25.1028 -7.70879
lfingers 7.12502
lthumb 1.41226 22.2663
rfemur -12.2594 -2.68364 20.2762
rtibia 18.7214
rfoot -13.8884 2.89878
rtoes 17.6001
lfemur -11.4559 8.61377 -17.5304
ltibia 16.9399
lfoot -10.7541 5.56275
ltoes -10.1402
425
root 0.0703413 17.7268 10.497 8.5203 -1.26043 -1.72451
lowerback -3.95119 0.697465 0.327996
upperback 0.479791 0.872565 1.55187
thorax 2.68913 0.428409 1.46535
lowerneck -12.3157 -0.420459 -1.59128
upperneck 25.8318 -0.437748 0.820141
head 10.2737 -0.258278 0.508289
rclavicle -6.4605e-016 3.97569e-015
rhumerus -23.16 -11.7432 -83.1406
rradius 24.7512
rwrist 39.5925
rhand -18.0249 -25.2432
rfingers 7.12502
rthumb 8.24626 -55.0623
lclavicle -6.4605e-016 3.97569e-015
lhumerus -29.3997 -0.988515 90.4912
lradius 16.5544
lwrist 6.60706
lhand -25.063 -7.69206
lfingers 7.12502
lthumb 1.45075 22.2828
rfemur -12.1159 -2.66016 20.2665
rtibia 18.723
rfoot -13.9493 2.92802
rtoes 17.5719
lfemur -11.3241 8.65674 -17.5196
ltibia 16.9906
lfoot -10.7813 5.59869
ltoes -10.101
426
root 0.0699843 17.7243 10.5125 8.43648 -1.31819 -1.71753
lowerback -4.04439 0.689582 0.310596
upperback 0.430425 0.862281 1.55845
thorax 2.69057 0.423086 1.48216
lowerneck -12.3879 -0.400468 -1.65468
upperneck 25.7288 -0.40484 0.863752
head 10.2499 -0.243961 0.538214
rclavicle 1.26725e-014 1.47101e-014
rhumerus -23.2287 -11.8386 -83.1208
rradius 24.7231
rwrist 39.5888
rhand -17.9964 -25.2451
rfingers 7.12502
rthumb 8.27376 -55.0631
lclavicle 1.26725e-014 1.47101e-014
lhumerus -29.3476 -0.895674 90.4533
lradius 16.5201
lwrist 6.46573
lhand -25.0607 -7.75841
lfingers 7.12502
lthumb 1.45294 22.2164
rfemur -11.972 -2.63546 20.2483
rtibia 18.7294
rfoot -14.0137 2.95007
rtoes 17.5363
lfemur -11.1812 8.69882 -17.5163
ltibia 17.0255
lfoot -10.8102 5.63202
ltoes -10.0648
427
root 0.0701284 17.7219 10.5285 8.35095 -1.37795 -1.70343
lowerback -4.14161 0.683004 0.294457
upperback 0.384682 0.853714 1.56053
thorax 2.69804 0.418647 1.49383
lowerneck -12.4675 -0.383202 -1.7119
upperneck 25.6277 -0.374197 0.896898
head 10.2284 -0.231239 0.563082
rclavicle 5.01931e-015 2.14687e-014
rhumerus -23.3053 -11.9666 -83.0952
rradius 24.6895
rwrist 39.5963
rhand -17.9606 -25.2473
rfingers 7.12502
rthumb 8.30836 -55.0639
lclavicle 5.01931e-015 2.14687e-014
lhumerus -29.2901 -0.803719 90.4128
lradius 16.4819
lwrist 6.36735
lhand -25.0865 -7.8326
lfingers 7.12502
lthumb 1.42801 22.1424
rfemur -11.8254 -2.62248 20.2203
rtibia 18.738
rfoot -14.0819 2.9835
rtoes 17.5073
lfemur -11.0242 8.73826 -17.5217
ltibia 17.0456
lfoot -10.8439 5.66787
ltoes -10.0151
428
root 0.0707278 17.7197 10.5447 8.26363 -1.43051 -1.68294
lowerback -4.24055 0.674638 0.279882
upperback 0.345066 0.842696 1.55897
thorax 2.71291 0.412998 1.50079
lowerneck -12.559 -0.365422 -1.75109
upperneck 25.5252 -0.342473 0.91389
head 10.2085 -0.218081 0.579277
rclavicle -4.67144e-015 -1.31198e-014
rhumerus -23.3901 -12.1109 -83.0672
rradius 24.6611
rwrist 39.5982
rhand -17.9196 -25.2617
rfingers 7.12502
rthumb 8.34791 -55.0767
lclavicle -4.67144e-015 -1.31198e-014
lhumerus -29.2217 -0.713897 90.37
lradius 16.4375
lwrist 6.30466
lhand -25.1254 -7.90785
lfingers 7.12502
lthumb 1.39043 22.0674
rfemur -11.6743 -2.62527 20.1843
rtibia 18.746
rfoot -14.153 3.0243
rtoes 17.4827
lfemur -10.8582 8.77169 -17.5344
ltibia 17.0558
lfoot -10.8839 5.7034
ltoes -9.96427
429
root 0.0716746 17.7175 10.5606 8.17949 -1.47971 -1.66473
lowerback -4.33942 0.66562 0.273131
upperback 0.307929 0.830395 1.5571
thorax 2.73044 0.406809 1.50296
lowerneck -12.6492 -0.349347 -1.77567
upperneck 25.4114 -0.311992 0.913669
head 10.1844 -0.206017 0.586701
rclavicle -4.67144e-015 -5.96354e-015
rhumerus -23.4823 -12.2686 -83.0342
rradius 24.6334
rwrist 39.594
rhand -17.873 -25.2894
rfingers 7.12502
rthumb 8.39293 -55.1027
lclavicle -4.67144e-015 -5.96354e-015
lhumerus -29.1455 -0.617515 90.323
lradius 16.3883
lwrist 6.26949
lhand -25.1524 -7.93381
lfingers 7.12502
lthumb 1.3644 22.0416
rfemur -11.5256 -2.6294 20.1505
rtibia 18.7503
rfoot -14.2188 3.06124
rtoes 17.455
lfemur -10.6943 8.79571 -17.5461
ltibia 17.0628
lfoot -10.924 5.74873
ltoes -9.91458
430
root 0.0727582 17.7155 10.576 8.10152 -1.52645 -1.65555
lowerback -4.43702 0.657719 0.27955
upperback 0.272028 0.818866 1.55618
thorax 2.74867 0.401183 1.49874
lowerneck -12.7488 -0.328167 -1.77035
upperneck 25.295 -0.274379 0.887636
head 10.1609 -0.190745 0.580805
rclavicle -3.65267e-015 -7.95139e-016
rhumerus -23.5791 -12.443 -82.9962
rradius 24.5992
rwrist 39.5848
rhand -17.8238 -25.3323
rfingers 7.12502
rthumb 8.44038 -55.1437
lclavicle -3.65267e-015 -7.95139e-016
lhumerus -29.0651 -0.502442 90.2655
lradius 16.3413
lwrist 6.22663
lhand -25.1726 -7.92778
lfingers 7.12502
lthumb 1.34487 22.0477
rfemur -11.3839 -2.61872 20.1269
rtibia 18.75
rfoot -14.2795 3.08106
rtoes 17.4266
lfemur -10.5413 8.81392 -17.5492
ltibia 17.0733
lfoot -10.9631 5.80419
ltoes -9.86509
